<svg width="60" height="60" viewBox="0 0 60 60" fill="none" xmlns="http://www.w3.org/2000/svg">
<mask id="path-1-inside-1_367_122" fill="white">
<path d="M59.1276 34.8348C58.5716 33.9397 57.7843 33.2096 56.8488 32.7251C56.6511 32.6208 56.435 32.5266 56.2045 32.4408H56.1717C55.8991 32.4408 55.6384 32.3584 55.4189 32.2061C55.0083 32.1161 54.5869 32.0706 54.1637 32.0706C52.8162 32.0706 51.5518 32.5164 50.5062 33.3593C50.2716 33.5485 49.9771 33.6528 49.676 33.6528C49.273 33.6528 48.8971 33.4737 48.6446 33.1607C48.4226 32.8856 48.3207 32.5407 48.3587 32.1891C48.3956 31.8366 48.5681 31.5211 48.8432 31.2982C50.3422 30.0886 52.2307 29.4224 54.1612 29.4224C54.7771 29.4224 55.3928 29.4896 55.9967 29.6243C57.1274 28.7292 57.8423 27.4598 58.0207 26.0197C58.0493 25.7926 58.0636 25.5637 58.0636 25.3375C58.0636 24.0185 57.5807 22.7399 56.7034 21.7405C55.8192 20.7344 54.6003 20.0884 53.2704 19.9234C53.1089 19.9032 52.9458 19.8899 52.7833 19.8847C52.6638 20.0202 52.5394 20.1539 52.4107 20.2835C51.8891 20.8084 51.2464 21.2845 50.4449 21.7413C49.8409 22.0837 49.156 22.4067 48.4099 22.7012C47.1171 23.2102 46.1042 23.4532 46.0942 23.455C45.9966 23.4785 45.8923 23.4903 45.788 23.4903C45.1747 23.4903 44.6464 23.0748 44.501 22.4791C44.4177 22.1344 44.4741 21.7793 44.6583 21.4781C44.8375 21.1829 45.1175 20.9743 45.4507 20.8868L45.4767 20.8809L45.7173 21.506L45.5516 20.8608L45.7897 20.796C46.0034 20.7354 46.3062 20.6437 46.6645 20.5227C47.3122 20.3014 48.2669 19.9338 49.1368 19.4392C49.7106 19.1136 50.1926 18.7611 50.529 18.4214C50.7217 18.2262 50.9101 18.0109 51.0901 17.7796L51.1759 17.6735C52.0028 16.5809 52.4814 15.2072 52.4805 13.8553C52.4789 12.4589 51.9859 11.1694 51.0547 10.1245C49.9485 8.88632 48.3612 8.17546 46.6989 8.17546C45.2646 8.17546 43.885 8.70199 42.815 9.65765C42.572 9.87468 42.259 9.9941 41.9334 9.9941C41.5557 9.9941 41.1956 9.83261 40.945 9.55089C40.7103 9.28757 40.5917 8.94773 40.611 8.59523C40.6312 8.24191 40.7877 7.918 41.051 7.68246C41.6246 7.17023 42.2598 6.74109 42.9436 6.403C42.7753 5.13867 42.1966 3.96269 41.2864 3.05249C40.1836 1.94964 38.7183 1.34308 37.1603 1.34238C35.6014 1.34308 34.1361 1.94964 33.0334 3.05249C31.9314 4.15453 31.3249 5.62078 31.3241 7.17855V16.6927H36.7616C37.4917 16.6927 38.0856 17.2874 38.0856 18.0166C38.0856 18.7467 37.4917 19.3407 36.7616 19.3407H31.3241V25.8728C32.9013 25.9467 34.2355 26.158 35.3887 26.5146C36.7641 26.9377 37.8939 27.5889 38.7443 28.4477C39.2466 28.9549 39.6704 29.5539 40.0052 30.2278C40.4402 31.1085 40.6732 32.0052 40.828 32.6883C40.913 33.0669 40.987 33.4411 41.0585 33.8062C41.1813 34.4245 41.2965 35.0084 41.4497 35.5256C41.5902 36.0018 41.7499 36.3836 41.9401 36.694C42.1748 37.0809 42.4583 37.372 42.83 37.6126C43.3592 37.9508 44.0573 38.1729 44.9634 38.2907C45.3117 38.3344 45.6238 38.5127 45.8407 38.792C46.0577 39.073 46.1519 39.4213 46.1074 39.7712C46.0216 40.4307 45.4571 40.927 44.7951 40.927L44.6235 40.9152C43.5156 40.7729 42.5945 40.4988 41.8063 40.0782C41.0559 39.6795 40.4292 39.1377 39.9448 38.4707C39.6621 38.0853 39.4266 37.6589 39.2238 37.1701C39.0143 36.6654 38.8486 36.1212 38.6855 35.4053C38.6021 35.0352 38.5298 34.665 38.4574 34.2982C38.3834 33.9247 38.3102 33.5538 38.2261 33.1921C37.9837 32.1339 37.6969 31.4061 37.2948 30.8325C37.0222 30.4413 36.6934 30.1132 36.2879 29.8297C35.7377 29.4462 35.0589 29.1526 34.2126 28.9322C33.3958 28.7194 32.4268 28.5813 31.324 28.5233V52.8217C31.3248 54.3796 31.9314 55.8458 33.0325 56.9487C34.1361 58.0507 35.6014 58.6571 37.1603 58.658C38.7182 58.6573 40.1835 58.0507 41.2864 56.9487C42.3885 55.845 42.9957 54.3796 42.9957 52.8217C42.9966 51.9779 42.7652 51.0518 42.3598 50.2803C41.8987 49.3978 41.2569 48.7468 40.4536 48.343C39.8327 48.0335 39.1455 47.8821 38.3523 47.8804C37.6229 47.8804 37.029 47.2873 37.029 46.558C37.029 45.8269 37.6229 45.2331 38.353 45.2331C39.2573 45.2331 40.1154 45.377 40.9036 45.6613C41.6413 45.9263 42.3211 46.3157 42.9233 46.8171C43.9748 47.6961 44.7732 48.9016 45.2325 50.303C45.5017 51.1266 45.643 51.9971 45.643 52.8216C45.6438 53.4793 45.5681 54.1321 45.4185 54.7698C46.0292 54.9784 46.6761 55.0877 47.3154 55.0877C48.7437 55.0869 50.12 54.5627 51.1883 53.6122C52.4317 52.506 53.145 50.9161 53.1458 49.2498C53.1458 48.544 53.0196 47.8526 52.7732 47.1939C52.5225 46.5267 52.1507 45.9135 51.6703 45.3727C51.1857 44.8267 51.2353 43.9888 51.7796 43.5035C52.0236 43.2873 52.3357 43.1695 52.6595 43.1695C53.038 43.1695 53.3989 43.331 53.6504 43.6145L53.7422 43.7196L53.8028 43.7298C53.844 43.7357 53.87 43.7381 53.9314 43.7407C53.9852 43.7415 54.0601 43.7423 54.1636 43.7423C55.7215 43.7415 57.1877 43.135 58.2907 42.033C59.3926 40.9294 59.9992 39.4641 60 37.9061C59.9993 36.8167 59.6972 35.7543 59.1276 34.8348Z"/>
</mask>
<path d="M59.1276 34.8348C58.5716 33.9397 57.7843 33.2096 56.8488 32.7251C56.6511 32.6208 56.435 32.5266 56.2045 32.4408H56.1717C55.8991 32.4408 55.6384 32.3584 55.4189 32.2061C55.0083 32.1161 54.5869 32.0706 54.1637 32.0706C52.8162 32.0706 51.5518 32.5164 50.5062 33.3593C50.2716 33.5485 49.9771 33.6528 49.676 33.6528C49.273 33.6528 48.8971 33.4737 48.6446 33.1607C48.4226 32.8856 48.3207 32.5407 48.3587 32.1891C48.3956 31.8366 48.5681 31.5211 48.8432 31.2982C50.3422 30.0886 52.2307 29.4224 54.1612 29.4224C54.7771 29.4224 55.3928 29.4896 55.9967 29.6243C57.1274 28.7292 57.8423 27.4598 58.0207 26.0197C58.0493 25.7926 58.0636 25.5637 58.0636 25.3375C58.0636 24.0185 57.5807 22.7399 56.7034 21.7405C55.8192 20.7344 54.6003 20.0884 53.2704 19.9234C53.1089 19.9032 52.9458 19.8899 52.7833 19.8847C52.6638 20.0202 52.5394 20.1539 52.4107 20.2835C51.8891 20.8084 51.2464 21.2845 50.4449 21.7413C49.8409 22.0837 49.156 22.4067 48.4099 22.7012C47.1171 23.2102 46.1042 23.4532 46.0942 23.455C45.9966 23.4785 45.8923 23.4903 45.788 23.4903C45.1747 23.4903 44.6464 23.0748 44.501 22.4791C44.4177 22.1344 44.4741 21.7793 44.6583 21.4781C44.8375 21.1829 45.1175 20.9743 45.4507 20.8868L45.4767 20.8809L45.7173 21.506L45.5516 20.8608L45.7897 20.796C46.0034 20.7354 46.3062 20.6437 46.6645 20.5227C47.3122 20.3014 48.2669 19.9338 49.1368 19.4392C49.7106 19.1136 50.1926 18.7611 50.529 18.4214C50.7217 18.2262 50.9101 18.0109 51.0901 17.7796L51.1759 17.6735C52.0028 16.5809 52.4814 15.2072 52.4805 13.8553C52.4789 12.4589 51.9859 11.1694 51.0547 10.1245C49.9485 8.88632 48.3612 8.17546 46.6989 8.17546C45.2646 8.17546 43.885 8.70199 42.815 9.65765C42.572 9.87468 42.259 9.9941 41.9334 9.9941C41.5557 9.9941 41.1956 9.83261 40.945 9.55089C40.7103 9.28757 40.5917 8.94773 40.611 8.59523C40.6312 8.24191 40.7877 7.918 41.051 7.68246C41.6246 7.17023 42.2598 6.74109 42.9436 6.403C42.7753 5.13867 42.1966 3.96269 41.2864 3.05249C40.1836 1.94964 38.7183 1.34308 37.1603 1.34238C35.6014 1.34308 34.1361 1.94964 33.0334 3.05249C31.9314 4.15453 31.3249 5.62078 31.3241 7.17855V16.6927H36.7616C37.4917 16.6927 38.0856 17.2874 38.0856 18.0166C38.0856 18.7467 37.4917 19.3407 36.7616 19.3407H31.3241V25.8728C32.9013 25.9467 34.2355 26.158 35.3887 26.5146C36.7641 26.9377 37.8939 27.5889 38.7443 28.4477C39.2466 28.9549 39.6704 29.5539 40.0052 30.2278C40.4402 31.1085 40.6732 32.0052 40.828 32.6883C40.913 33.0669 40.987 33.4411 41.0585 33.8062C41.1813 34.4245 41.2965 35.0084 41.4497 35.5256C41.5902 36.0018 41.7499 36.3836 41.9401 36.694C42.1748 37.0809 42.4583 37.372 42.83 37.6126C43.3592 37.9508 44.0573 38.1729 44.9634 38.2907C45.3117 38.3344 45.6238 38.5127 45.8407 38.792C46.0577 39.073 46.1519 39.4213 46.1074 39.7712C46.0216 40.4307 45.4571 40.927 44.7951 40.927L44.6235 40.9152C43.5156 40.7729 42.5945 40.4988 41.8063 40.0782C41.0559 39.6795 40.4292 39.1377 39.9448 38.4707C39.6621 38.0853 39.4266 37.6589 39.2238 37.1701C39.0143 36.6654 38.8486 36.1212 38.6855 35.4053C38.6021 35.0352 38.5298 34.665 38.4574 34.2982C38.3834 33.9247 38.3102 33.5538 38.2261 33.1921C37.9837 32.1339 37.6969 31.4061 37.2948 30.8325C37.0222 30.4413 36.6934 30.1132 36.2879 29.8297C35.7377 29.4462 35.0589 29.1526 34.2126 28.9322C33.3958 28.7194 32.4268 28.5813 31.324 28.5233V52.8217C31.3248 54.3796 31.9314 55.8458 33.0325 56.9487C34.1361 58.0507 35.6014 58.6571 37.1603 58.658C38.7182 58.6573 40.1835 58.0507 41.2864 56.9487C42.3885 55.845 42.9957 54.3796 42.9957 52.8217C42.9966 51.9779 42.7652 51.0518 42.3598 50.2803C41.8987 49.3978 41.2569 48.7468 40.4536 48.343C39.8327 48.0335 39.1455 47.8821 38.3523 47.8804C37.6229 47.8804 37.029 47.2873 37.029 46.558C37.029 45.8269 37.6229 45.2331 38.353 45.2331C39.2573 45.2331 40.1154 45.377 40.9036 45.6613C41.6413 45.9263 42.3211 46.3157 42.9233 46.8171C43.9748 47.6961 44.7732 48.9016 45.2325 50.303C45.5017 51.1266 45.643 51.9971 45.643 52.8216C45.6438 53.4793 45.5681 54.1321 45.4185 54.7698C46.0292 54.9784 46.6761 55.0877 47.3154 55.0877C48.7437 55.0869 50.12 54.5627 51.1883 53.6122C52.4317 52.506 53.145 50.9161 53.1458 49.2498C53.1458 48.544 53.0196 47.8526 52.7732 47.1939C52.5225 46.5267 52.1507 45.9135 51.6703 45.3727C51.1857 44.8267 51.2353 43.9888 51.7796 43.5035C52.0236 43.2873 52.3357 43.1695 52.6595 43.1695C53.038 43.1695 53.3989 43.331 53.6504 43.6145L53.7422 43.7196L53.8028 43.7298C53.844 43.7357 53.87 43.7381 53.9314 43.7407C53.9852 43.7415 54.0601 43.7423 54.1636 43.7423C55.7215 43.7415 57.1877 43.135 58.2907 42.033C59.3926 40.9294 59.9992 39.4641 60 37.9061C59.9993 36.8167 59.6972 35.7543 59.1276 34.8348Z" stroke="#F8B501" stroke-opacity="0.6" stroke-width="4" mask="url(#path-1-inside-1_367_122)"/>
<path d="M22.8404 1.34215C21.2816 1.34285 19.8163 1.94941 18.7134 3.05226C17.8032 3.96246 17.2245 5.13937 17.0563 6.40195C17.7386 6.74016 18.3736 7.16824 18.9482 7.68141L19.0416 7.77316L19.1384 7.88414L19.3327 8.09777C19.5084 8.28785 19.7641 8.56043 20.077 8.87332C20.6432 9.44203 21.5105 10.2614 22.4299 10.9402C23.0398 11.3911 23.6109 11.7326 24.0837 11.9286C24.4118 12.0649 24.6405 12.1111 24.7751 12.1263C25.1276 12.1658 25.443 12.34 25.6634 12.6158C25.8846 12.8918 25.9847 13.2375 25.9451 13.5892C25.8702 14.2604 25.305 14.7669 24.6304 14.7669L24.484 14.7586C24.0314 14.7081 23.5687 14.5819 23.0691 14.3741C22.6535 14.2016 22.2295 13.9796 21.771 13.6944C21.0518 13.2461 20.2753 12.6538 19.4636 11.9354C18.275 10.8823 17.3657 9.87445 17.1318 9.61031C16.0677 8.68418 14.709 8.17441 13.3001 8.17441C11.6386 8.17523 10.0513 8.88527 8.94598 10.1235C7.98949 11.1927 7.46379 12.573 7.46297 14.0073C7.46297 14.9814 7.70602 15.9354 8.16867 16.7892H8.18461C8.62125 16.7892 9.06035 16.822 9.48855 16.8885C10.2111 17.0012 10.7066 17.6783 10.5955 18.3993C10.4937 19.0495 9.94441 19.5214 9.28828 19.5214C9.22102 19.5214 9.15199 19.5163 9.08309 19.5062C8.79035 19.46 8.48742 19.4373 8.18461 19.4373C8.11477 19.4373 8.04586 19.4381 7.97508 19.4398C6.45586 19.4945 5.0359 20.1279 3.97934 21.2239C2.92617 22.3175 2.34656 23.7543 2.34656 25.2684C2.34656 25.3383 2.34738 25.4089 2.34914 25.4796C2.40457 27.0435 3.09023 28.519 4.24184 29.5746C4.77012 29.4737 5.30508 29.4224 5.83594 29.4224C7.76906 29.4224 9.65754 30.0886 11.1558 31.2982L11.287 31.4177L11.3872 31.5305C11.4327 31.58 11.5024 31.6532 11.5942 31.7459C11.8541 32.0082 12.1351 32.2657 12.4287 32.5121C13.0789 33.0573 14.1094 33.8085 15.3318 34.2939C16.1653 34.6245 16.9855 34.7919 17.7688 34.7919C18.4989 34.7919 19.0928 35.3857 19.0928 36.1159C19.0928 36.8461 18.4989 37.44 17.7688 37.44C16.6457 37.4391 15.4975 37.2087 14.3551 36.7545C13.4667 36.4012 12.5793 35.9132 11.7163 35.3033C10.5176 34.4546 9.69481 33.6025 9.41895 33.3004C8.38688 32.4962 7.14937 32.0706 5.83629 32.0706C4.89 32.0706 3.98648 32.2902 3.15117 32.7251C2.2166 33.2096 1.4284 33.9397 0.872344 34.8348C0.302813 35.7543 0.0009375 36.8167 0 37.9069C0.0009375 39.4639 0.607383 40.9294 1.7093 42.0329C2.81215 43.135 4.27828 43.7414 5.83629 43.7422C6.02895 43.7422 6.12152 43.7414 6.19887 43.7331L6.25102 43.7263L6.34945 43.6144C6.60094 43.3309 6.96187 43.1694 7.34039 43.1694C7.6643 43.1694 7.97637 43.2872 8.21941 43.5034C8.48355 43.738 8.64094 44.0619 8.66191 44.4161C8.68207 44.7686 8.5643 45.1084 8.32887 45.3725C7.84934 45.9134 7.47762 46.5275 7.22684 47.1946C6.97957 47.8533 6.85418 48.5439 6.85418 49.2497C6.85488 50.9153 7.56832 52.5052 8.81074 53.6121C9.87996 54.5626 11.2562 55.0868 12.6845 55.0876C13.3239 55.0876 13.9707 54.9783 14.5814 54.7697C14.4316 54.1337 14.3568 53.481 14.3568 52.8214C14.3568 51.7673 14.5806 50.6797 15.0028 49.6729C15.4773 48.5406 16.1939 47.5537 17.0756 46.8186C17.3136 46.6201 17.6148 46.5108 17.9235 46.5108C18.3182 46.5108 18.6881 46.6841 18.9405 46.9869C19.4066 47.5472 19.3317 48.3833 18.7724 48.8511C18.2146 49.3154 17.7553 49.9532 17.4432 50.6975C17.1598 51.373 17.0033 52.1276 17.0041 52.8217C17.0041 54.3796 17.6114 55.8449 18.7134 56.9487C19.8163 58.0507 21.2817 58.6571 22.8404 58.658C24.3983 58.6573 25.8646 58.0507 26.9674 56.9487C28.0685 55.8458 28.6751 54.3796 28.6759 52.8217V42.2115H23.7346C23.0053 42.2115 22.4114 41.6184 22.4114 40.8882C22.4114 40.1582 23.0053 39.5641 23.7346 39.5641H28.6759V31.5171C28.1139 31.2581 27.4998 31.1217 26.8789 31.121C26.4432 31.121 26.0075 31.1883 25.5844 31.3195C24.4773 31.7023 23.3611 31.9008 22.2868 31.9008C20.2419 31.9008 18.3786 31.174 17.0293 29.8549C15.7464 28.6032 15.0095 26.8771 15.0088 25.1181C15.008 23.5543 15.5655 22.0595 16.6239 20.7952C16.8762 20.4922 17.2464 20.3198 17.64 20.3198C17.9496 20.3198 18.2508 20.4293 18.488 20.6277C19.0482 21.0963 19.1231 21.9316 18.6562 22.4919C17.9951 23.286 17.6586 24.17 17.6578 25.119C17.6578 26.1663 18.1028 27.2026 18.8791 27.9606C19.7473 28.8043 20.9258 29.2511 22.2878 29.2527C23.0701 29.2527 23.9003 29.1021 24.7541 28.8061C25.4716 28.5806 26.1732 28.4737 26.8799 28.4737C27.4897 28.4737 28.0904 28.5529 28.6759 28.7119V7.17844C28.675 5.62055 28.0685 4.1543 26.9674 3.05238C25.8646 1.94941 24.3983 1.34297 22.8404 1.34215Z" fill="#F8B501" fill-opacity="0.6"/>
<path d="M27.0001 28.3807C20.5001 21.8807 23.5 14.9454 29 14.163C34.5 13.3807 37 15.3807 40 20.8807" stroke="#F8B501" stroke-width="5" stroke-linecap="round" stroke-linejoin="round"/>
<path d="M34.9999 31.8807C41.4999 38.3807 38.5 45.3161 33 46.0984C27.5 46.8807 25 44.8807 22 39.3807" stroke="#F8B501" stroke-width="5" stroke-linecap="round" stroke-linejoin="round"/>
<path d="M35 21.3807C36.526 22.2488 39.5 22.4394 41 22.4394C42.5 22.4394 42.5 16.4394 42.5 16.4394" stroke="#F8B501" stroke-width="3" stroke-linecap="round" stroke-linejoin="round"/>
<path d="M27.5 38.9394C25.974 38.0714 23 37.8807 21.5 37.8807C20 37.8807 20 43.8807 20 43.8807" stroke="#F8B501" stroke-width="3" stroke-linecap="round" stroke-linejoin="round"/>
</svg>
